<svg width="95" height="26" fill="none" xmlns="http://www.w3.org/2000/svg"><mask id="a" maskUnits="userSpaceOnUse" x="18.781" y="5" width="76" height="16" fill="#000"><path fill="#fff" d="M18.781 5h76v16h-76z"/><path d="M24.92 20.24c-.986 0-1.853-.18-2.6-.54a4.237 4.237 0 0 1-1.74-1.54c-.412-.667-.626-1.46-.64-2.38h2.24c.014.707.254 1.313.72 1.82.48.493 1.148.74 2 .74.788 0 1.4-.18 1.84-.54.44-.373.66-.853.66-1.44 0-.493-.133-.9-.4-1.22-.253-.333-.652-.627-1.2-.88-.546-.267-1.253-.54-2.12-.82-1.16-.373-2.012-.887-2.56-1.54-.546-.667-.82-1.48-.82-2.44 0-1.107.4-2 1.2-2.68.8-.68 1.9-1.02 3.3-1.02 1.36 0 2.454.353 3.28 1.06.828.693 1.254 1.66 1.28 2.9H27.1a1.82 1.82 0 0 0-.28-.96 2.143 2.143 0 0 0-.8-.78c-.346-.213-.773-.32-1.28-.32-.626-.013-1.152.14-1.58.46-.426.307-.64.727-.64 1.26 0 .653.26 1.167.78 1.54.52.36 1.367.733 2.54 1.12a8.98 8.98 0 0 1 1.94.88 3.69 3.69 0 0 1 1.34 1.3c.334.52.5 1.187.5 2 0 .747-.186 1.427-.56 2.04-.372.6-.912 1.08-1.62 1.44-.693.36-1.533.54-2.52.54zM36.194 20V6h4.74c1.067 0 1.947.187 2.64.56.693.36 1.207.86 1.54 1.5.333.64.5 1.373.5 2.2 0 .827-.167 1.56-.5 2.2-.333.64-.847 1.147-1.54 1.52-.693.36-1.573.54-2.64.54h-2.62V20h-2.12zm2.12-7.38h2.52c.907 0 1.567-.213 1.98-.64.427-.427.64-1 .64-1.72 0-.707-.213-1.273-.64-1.7-.413-.44-1.073-.66-1.98-.66h-2.52v4.72zm18.452 7.62c-1.133 0-2.113-.293-2.94-.88-.826-.587-1.46-1.42-1.9-2.5-.44-1.08-.66-2.367-.66-3.86 0-1.493.22-2.78.66-3.86.44-1.08 1.074-1.913 1.9-2.5.827-.587 1.807-.88 2.94-.88 1.147 0 2.127.293 2.94.88.827.587 1.46 1.42 1.9 2.5.44 1.08.66 2.367.66 3.86 0 1.493-.22 2.78-.66 3.86-.44 1.08-1.073 1.913-1.9 2.5-.813.587-1.793.88-2.94.88zm0-2c1 0 1.807-.447 2.42-1.34.614-.907.92-2.207.92-3.9s-.306-2.987-.92-3.88c-.613-.907-1.42-1.36-2.42-1.36-1.013 0-1.826.453-2.44 1.36-.6.893-.9 2.187-.9 3.88s.3 2.993.9 3.9c.614.893 1.427 1.34 2.44 1.34zM71.697 20V7.9h-3.76V6h9.64v1.9h-3.76V20h-2.12zm17.193.24c-.987 0-1.854-.18-2.6-.54a4.239 4.239 0 0 1-1.74-1.54c-.414-.667-.627-1.46-.64-2.38h2.24c.013.707.253 1.313.72 1.82.48.493 1.146.74 2 .74.786 0 1.4-.18 1.84-.54.44-.373.66-.853.66-1.44 0-.493-.134-.9-.4-1.22-.254-.333-.654-.627-1.2-.88-.547-.267-1.254-.54-2.12-.82-1.16-.373-2.014-.887-2.56-1.54-.547-.667-.82-1.48-.82-2.44 0-1.107.4-2 1.2-2.68.8-.68 1.9-1.02 3.3-1.02 1.36 0 2.453.353 3.28 1.06.826.693 1.253 1.66 1.28 2.9h-2.26a1.82 1.82 0 0 0-.28-.96 2.141 2.141 0 0 0-.8-.78c-.347-.213-.774-.32-1.28-.32-.627-.013-1.154.14-1.58.46-.427.307-.64.727-.64 1.26 0 .653.26 1.167.78 1.54.52.36 1.366.733 2.54 1.12.733.24 1.38.533 1.94.88a3.69 3.69 0 0 1 1.34 1.3c.333.52.5 1.187.5 2 0 .747-.187 1.427-.56 2.04-.374.6-.914 1.08-1.62 1.44-.694.36-1.534.54-2.52.54z"/></mask><path d="M24.92 20.24c-.986 0-1.853-.18-2.6-.54a4.237 4.237 0 0 1-1.74-1.54c-.412-.667-.626-1.46-.64-2.38h2.24c.014.707.254 1.313.72 1.82.48.493 1.148.74 2 .74.788 0 1.4-.18 1.84-.54.44-.373.66-.853.66-1.44 0-.493-.133-.9-.4-1.22-.253-.333-.652-.627-1.2-.88-.546-.267-1.253-.54-2.12-.82-1.16-.373-2.012-.887-2.56-1.54-.546-.667-.82-1.48-.82-2.44 0-1.107.4-2 1.2-2.68.8-.68 1.9-1.02 3.3-1.02 1.36 0 2.454.353 3.28 1.06.828.693 1.254 1.66 1.28 2.9H27.1a1.82 1.82 0 0 0-.28-.96 2.143 2.143 0 0 0-.8-.78c-.346-.213-.773-.32-1.28-.32-.626-.013-1.152.14-1.58.46-.426.307-.64.727-.64 1.26 0 .653.26 1.167.78 1.54.52.36 1.367.733 2.54 1.12a8.98 8.98 0 0 1 1.94.88 3.69 3.69 0 0 1 1.34 1.3c.334.52.5 1.187.5 2 0 .747-.186 1.427-.56 2.04-.372.6-.912 1.08-1.62 1.44-.693.36-1.533.54-2.52.54zM36.194 20V6h4.74c1.067 0 1.947.187 2.64.56.693.36 1.207.86 1.54 1.5.333.64.5 1.373.5 2.2 0 .827-.167 1.56-.5 2.2-.333.64-.847 1.147-1.54 1.52-.693.36-1.573.54-2.64.54h-2.62V20h-2.12zm2.12-7.38h2.52c.907 0 1.567-.213 1.98-.64.427-.427.64-1 .64-1.72 0-.707-.213-1.273-.64-1.7-.413-.44-1.073-.66-1.98-.66h-2.52v4.72zm18.452 7.62c-1.133 0-2.113-.293-2.94-.88-.826-.587-1.46-1.42-1.9-2.5-.44-1.08-.66-2.367-.66-3.86 0-1.493.22-2.78.66-3.86.44-1.08 1.074-1.913 1.9-2.5.827-.587 1.807-.88 2.94-.88 1.147 0 2.127.293 2.94.88.827.587 1.46 1.42 1.9 2.5.44 1.08.66 2.367.66 3.86 0 1.493-.22 2.78-.66 3.86-.44 1.08-1.073 1.913-1.9 2.5-.813.587-1.793.88-2.94.88zm0-2c1 0 1.807-.447 2.42-1.34.614-.907.92-2.207.92-3.9s-.306-2.987-.92-3.88c-.613-.907-1.42-1.36-2.42-1.36-1.013 0-1.826.453-2.44 1.36-.6.893-.9 2.187-.9 3.88s.3 2.993.9 3.9c.614.893 1.427 1.34 2.44 1.34zM71.697 20V7.9h-3.76V6h9.64v1.9h-3.76V20h-2.12zm17.193.24c-.987 0-1.854-.18-2.6-.54a4.239 4.239 0 0 1-1.74-1.54c-.414-.667-.627-1.46-.64-2.38h2.24c.013.707.253 1.313.72 1.82.48.493 1.146.74 2 .74.786 0 1.4-.18 1.84-.54.44-.373.66-.853.66-1.44 0-.493-.134-.9-.4-1.22-.254-.333-.654-.627-1.2-.88-.547-.267-1.254-.54-2.12-.82-1.16-.373-2.014-.887-2.56-1.54-.547-.667-.82-1.48-.82-2.44 0-1.107.4-2 1.2-2.68.8-.68 1.9-1.02 3.3-1.02 1.36 0 2.453.353 3.28 1.06.826.693 1.253 1.66 1.28 2.9h-2.26a1.82 1.82 0 0 0-.28-.96 2.141 2.141 0 0 0-.8-.78c-.347-.213-.774-.32-1.28-.32-.627-.013-1.154.14-1.58.46-.427.307-.64.727-.64 1.26 0 .653.26 1.167.78 1.54.52.36 1.366.733 2.54 1.12.733.24 1.38.533 1.94.88a3.69 3.69 0 0 1 1.34 1.3c.333.52.5 1.187.5 2 0 .747-.187 1.427-.56 2.04-.374.6-.914 1.08-1.62 1.44-.694.36-1.534.54-2.52.54z" fill="#212121"/><path d="m22.32 19.7-.087.18h.001l.087-.18zm-1.74-1.54-.17.105.002.003.169-.108zm-.64-2.38v-.2h-.202l.003.203.2-.003zm2.24 0 .2-.004-.003-.196h-.196v.2zm.72 1.82-.146.135.003.005.144-.14zm3.84.2.128.155.002-.002-.13-.153zm.26-2.66-.159.121.006.007.154-.128zm-1.2-.88-.087.18.004.002.084-.182zm-2.12-.82.062-.19-.061.19zm-2.56-1.54-.154.127.002.001.153-.128zm6.96-5.08-.13.152.002.001.129-.153zm1.28 2.9v.2h.205l-.004-.204-.2.004zm-2.26 0h-.2v.2h.2v-.2zm-.28-.96-.172.1.002.004.17-.104zm-.8-.78-.104.17.005.003.1-.173zm-1.28-.32-.003.2h.004v-.2zm-1.58.46.118.162.003-.002-.12-.16zm.14 2.8-.116.162.003.002.114-.164zm2.54 1.12-.062.19.063-.19zm1.94.88-.104.17.004.003.1-.173zm1.34 1.3-.17.103.003.005.168-.108zm-.06 4.04.17.106.002-.002-.171-.104zm-1.62 1.44-.09-.178h-.001l.092.178zm-2.52.54v-.2c-.961 0-1.797-.175-2.512-.52l-.087.18-.087.18c.778.376 1.676.56 2.687.56v-.2zm-2.6-.54.089-.18a4.04 4.04 0 0 1-1.66-1.468l-.168.108-.169.108a4.438 4.438 0 0 0 1.82 1.611l.089-.179zm-1.74-1.54.17-.105c-.39-.631-.596-1.388-.61-2.278l-.2.003-.2.003c.015.95.235 1.78.67 2.482l.17-.105zm-.64-2.38v.2h2.24v-.4h-2.24v.2zm2.24 0-.2.004c.015.754.273 1.408.774 1.951l.147-.135.147-.136a2.472 2.472 0 0 1-.667-1.688l-.2.004zm.72 1.82-.142.14c.526.54 1.25.8 2.143.8v-.4c-.813 0-1.423-.234-1.857-.68l-.143.14zm2 .74v.2c.816 0 1.48-.186 1.968-.585l-.127-.155-.127-.155c-.393.322-.955.495-1.713.495v.2zm1.84-.54.13.152c.486-.412.73-.948.73-1.592h-.4c0 .53-.194.953-.588 1.288l.129.152zm.66-1.44h.2c0-.531-.144-.986-.446-1.348l-.153.128-.154.128c.232.278.354.636.354 1.092h.2zm-.4-1.22.16-.121c-.28-.368-.71-.679-1.275-.94l-.084.181-.084.181c.529.246.898.522 1.125.82L27 15.14zm-1.2-.88.089-.18c-.559-.272-1.275-.549-2.147-.83l-.061.19-.062.19c.862.279 1.559.549 2.094.81l.088-.18zm-2.12-.82.062-.19c-1.139-.367-1.954-.864-2.468-1.478l-.153.128-.153.128c.579.693 1.47 1.222 2.652 1.602l.06-.19zm-2.56-1.54.155-.127c-.513-.627-.774-1.394-.774-2.313h-.4c0 1 .286 1.86.865 2.567l.155-.127zm-.82-2.44h.2c0-1.052.378-1.888 1.13-2.528l-.13-.152-.129-.152c-.847.72-1.27 1.67-1.27 2.832h.2zm1.2-2.68.13.152c.754-.64 1.802-.972 3.17-.972v-.4c-1.43 0-2.582.348-3.429 1.068l.13.152zm3.3-1.02v.2c1.325 0 2.369.343 3.15 1.012l.13-.152.13-.152c-.87-.745-2.014-1.108-3.41-1.108v.2zm3.28 1.06-.128.153c.776.65 1.183 1.56 1.209 2.751l.2-.004.2-.004c-.028-1.288-.474-2.313-1.352-3.05l-.128.154zm1.28 2.9v-.2H27.1v.4h2.26v-.2zm-2.26 0h.2a2.02 2.02 0 0 0-.308-1.064l-.171.104-.171.104c.17.278.25.562.25.856h.2zm-.28-.96.174-.1a2.342 2.342 0 0 0-.873-.853l-.1.173-.1.173c.319.184.56.42.727.708l.173-.101zm-.8-.78.106-.17c-.385-.237-.85-.35-1.385-.35v.4c.479 0 .867.1 1.175.29l.105-.17zm-1.28-.32.005-.2c-.663-.014-1.236.149-1.704.5l.12.16.12.16c.385-.289.866-.433 1.456-.42l.004-.2zm-1.58.46-.116-.162c-.48.345-.723.825-.723 1.422h.4c0-.47.183-.83.557-1.098l-.117-.162zm-.64 1.26h-.2c0 .716.29 1.29.864 1.702l.117-.162.117-.162c-.467-.335-.697-.788-.697-1.378h-.2zm.78 1.54-.113.164c.544.377 1.414.758 2.591 1.146l.063-.19.063-.19c-1.17-.385-1.994-.751-2.49-1.094l-.113.164zm2.54 1.12-.061.19a8.78 8.78 0 0 1 1.897.86l.105-.17.105-.17a9.178 9.178 0 0 0-1.983-.9l-.062.19zm1.94.88-.1.173a3.49 3.49 0 0 1 1.27 1.23l.17-.103.172-.103a3.89 3.89 0 0 0-1.41-1.37l-.101.173zm1.34 1.3-.168.108c.308.479.469 1.105.469 1.892h.4c0-.84-.172-1.547-.532-2.108l-.168.108zm.5 2h-.2c0 .712-.177 1.355-.53 1.936l.17.104.172.104c.393-.646.589-1.362.589-2.144h-.2zm-.56 2.04-.169-.106c-.352.566-.863 1.022-1.54 1.368l.09.178.09.178c.736-.374 1.305-.878 1.7-1.512l-.17-.106zm-1.62 1.44-.091-.177c-.659.341-1.465.517-2.428.517v.4c1.01 0 1.884-.184 2.612-.563l-.092-.177zm8.753.3h-.2v.2h.2V20zm0-14v-.2h-.2V6h.2zm7.38.56-.095.176.003.002.092-.178zm1.54 1.5-.177.092.177-.092zm0 4.4-.177-.092.177.092zm-1.54 1.52.092.178.003-.002-.095-.176zm-5.26.54v-.2h-.2v.2h.2zm0 5.48v.2h.2V20h-.2zm0-7.38h-.2v.2h.2v-.2zm4.5-.64-.141-.141-.003.002.144.139zm0-3.42-.146.137.005.004.141-.141zm-4.5-.66v-.2h-.2v.2h.2zM36.193 20h.2V6h-.4v14h.2zm0-14v.2h4.74v-.4h-4.74V6zm4.74 0v.2c1.045 0 1.89.183 2.545.536l.095-.176.095-.176c-.731-.394-1.646-.584-2.735-.584V6zm2.64.56-.092.178c.66.342 1.142.814 1.455 1.414l.177-.092.177-.092c-.353-.68-.898-1.208-1.625-1.585l-.092.177zm1.54 1.5-.177.092c.316.608.477 1.309.477 2.108h.4c0-.854-.172-1.62-.523-2.292l-.177.092zm.5 2.2h-.2c0 .8-.16 1.5-.477 2.108l.177.092.177.092c.35-.672.523-1.438.523-2.292h-.2zm-.5 2.2-.177-.092c-.313.6-.796 1.08-1.458 1.436l.095.176.095.176c.725-.39 1.269-.925 1.622-1.604l-.177-.092zm-1.54 1.52-.092-.178c-.657.341-1.502.518-2.548.518v.4c1.088 0 2.002-.183 2.732-.563l-.092-.177zm-2.64.54v-.2h-2.62v.4h2.62v-.2zm-2.62 0h-.2V20h.4v-5.48h-.2zm0 5.48v-.2h-2.12v.4h2.12V20zm0-7.38v.2h2.52v-.4h-2.52v.2zm2.52 0v.2c.933 0 1.657-.219 2.124-.7l-.144-.14-.144-.14c-.36.372-.955.58-1.836.58v.2zm1.98-.64.142.141c.47-.47.698-1.099.698-1.861h-.4c0 .678-.2 1.197-.581 1.579l.141.141zm.64-1.72h.2c0-.75-.228-1.37-.698-1.841l-.142.141-.141.141c.382.383.581.896.581 1.559h.2zm-.64-1.7.146-.137c-.467-.497-1.192-.723-2.126-.723v.4c.88 0 1.474.214 1.834.597l.146-.137zm-1.98-.66v-.2h-2.52v.4h2.52v-.2zm-2.52 0h-.2v4.72h.4V7.9h-.2zm15.512 11.46.116-.163-.116.163zm-1.9-2.5-.185.076.185-.076zm0-7.72-.185-.075.185.075zm1.9-2.5-.116-.163.116.163zm5.88 0-.117.162.002.001.115-.163zm1.9 2.5.186-.075-.186.075zm0 7.72.186.076-.186-.076zm-1.9 2.5-.115-.163h-.002l.117.163zm-.52-2.46.165.113-.165-.113zm0-7.78-.165.112v.001l.165-.113zm-4.86 0-.165-.112.165.112zm0 7.78-.167.11.002.003.165-.113zm2.44 3.34v-.2c-1.097 0-2.035-.283-2.824-.843l-.116.163-.116.163c.865.614 1.886.917 3.056.917v-.2zm-2.94-.88.116-.163c-.791-.562-1.403-1.362-1.83-2.412l-.186.075-.185.076c.452 1.11 1.107 1.975 1.97 2.587l.115-.163zm-1.9-2.5.186-.075c-.428-1.05-.646-2.31-.646-3.785h-.4c0 1.512.223 2.826.675 3.936l.185-.076zm-.66-3.86h.2c0-1.474.217-2.734.645-3.785l-.185-.075-.185-.075c-.452 1.11-.675 2.423-.675 3.935h.2zm.66-3.86.186.075c.427-1.05 1.039-1.85 1.83-2.412l-.116-.163-.116-.163c-.862.612-1.517 1.478-1.969 2.588l.185.075zm1.9-2.5.116.163c.789-.56 1.727-.843 2.824-.843v-.4c-1.17 0-2.191.303-3.056.917l.116.163zm2.94-.88v.2c1.111 0 2.049.284 2.823.842l.117-.162.117-.162c-.852-.615-1.874-.918-3.057-.918v.2zm2.94.88-.115.163c.79.562 1.402 1.362 1.83 2.412l.185-.075.186-.075c-.453-1.11-1.108-1.976-1.97-2.588l-.116.163zm1.9 2.5-.185.075c.428 1.05.645 2.31.645 3.785h.4c0-1.512-.223-2.826-.675-3.935l-.185.075zm.66 3.86h-.2c0 1.474-.217 2.734-.645 3.785l.185.075.186.076c.452-1.11.674-2.424.674-3.936h-.2zm-.66 3.86-.185-.075c-.428 1.05-1.04 1.85-1.83 2.412l.115.163.116.163c.862-.612 1.517-1.478 1.97-2.587l-.186-.076zm-1.9 2.5-.117-.162c-.774.558-1.712.842-2.823.842v.4c1.183 0 2.205-.303 3.057-.918l-.117-.162zm-2.94-1.12v.2c1.072 0 1.938-.485 2.585-1.427l-.165-.113-.165-.113c-.58.844-1.327 1.253-2.255 1.253v.2zm2.42-1.34.166.112c.645-.953.954-2.299.954-4.012h-.4c0 1.674-.304 2.928-.885 3.788l.165.112zm.92-3.9h.2c0-1.713-.31-3.053-.955-3.993l-.165.113-.165.113c.581.846.885 2.093.885 3.767h.2zm-.92-3.88.166-.112c-.646-.956-1.512-1.448-2.586-1.448v.4c.927 0 1.674.414 2.255 1.272l.165-.112zm-2.42-1.36v-.2c-1.086 0-1.958.492-2.605 1.448l.165.112.166.112c.58-.857 1.333-1.272 2.274-1.272v-.2zm-2.44 1.36-.166-.112c-.631.94-.934 2.28-.934 3.992h.4c0-1.675.298-2.922.866-3.768l-.166-.112zm-.9 3.88h-.2c0 1.712.303 3.057.933 4.01l.167-.11.167-.11c-.57-.86-.867-2.116-.867-3.79h-.2zm.9 3.9-.165.113c.648.943 1.52 1.427 2.605 1.427v-.4c-.942 0-1.696-.41-2.275-1.253l-.165.113zM71.697 20h-.2v.2h.2V20zm0-12.1h.2v-.2h-.2v.2zm-3.76 0h-.2v.2h.2v-.2zm0-1.9v-.2h-.2V6h.2zm9.64 0h.2v-.2h-.2V6zm0 1.9v.2h.2v-.2h-.2zm-3.76 0v-.2h-.2v.2h.2zm0 12.1v.2h.2V20h-.2zm-2.12 0h.2V7.9h-.4V20h.2zm0-12.1v-.2h-3.76v.4h3.76v-.2zm-3.76 0h.2V6h-.4v1.9h.2zm0-1.9v.2h9.64v-.4h-9.64V6zm9.64 0h-.2v1.9h.4V6h-.2zm0 1.9v-.2h-3.76v.4h3.76v-.2zm-3.76 0h-.2V20h.4V7.9h-.2zm0 12.1v-.2h-2.12v.4h2.12V20zm12.473-.3-.089.18h.002l.087-.18zm-1.74-1.54-.17.105.001.003.169-.108zm-.64-2.38v-.2h-.203l.003.203.2-.003zm2.24 0 .2-.004-.004-.196h-.196v.2zm.72 1.82-.148.135.004.005.144-.14zm3.84.2.126.155.003-.002-.13-.153zm.26-2.66-.16.121.006.007.154-.128zm-1.2-.88-.088.18.004.002.084-.182zm-2.12-.82.061-.19-.061.19zm-2.56-1.54-.155.127.001.001.154-.128zm6.96-5.08-.13.152.001.001.129-.153zm1.28 2.9v.2h.204l-.004-.204-.2.004zm-2.26 0h-.2v.2h.2v-.2zm-.28-.96-.173.1.002.004.17-.104zm-.8-.78-.105.17.005.003.1-.173zm-1.28-.32-.005.2h.005v-.2zm-1.58.46.116.162.004-.002-.12-.16zm.14 2.8-.117.162.003.002.114-.164zm2.54 1.12-.063.19.063-.19zm1.94.88-.106.17.005.003.1-.173zm1.34 1.3-.172.103.003.005.169-.108zm-.06 4.04.17.106v-.002l-.17-.104zm-1.62 1.44-.091-.178h-.002l.093.178zm-2.52.54v-.2c-.963 0-1.799-.175-2.514-.52l-.086.18-.087.18c.778.376 1.675.56 2.687.56v-.2zm-2.6-.54.088-.18a4.039 4.039 0 0 1-1.66-1.468l-.168.108-.169.108a4.437 4.437 0 0 0 1.82 1.611l.089-.179zm-1.74-1.54.17-.105c-.391-.631-.597-1.388-.61-2.278l-.2.003-.2.003c.013.95.234 1.78.67 2.482l.17-.105zm-.64-2.38v.2h2.24v-.4h-2.24v.2zm2.24 0-.2.004c.014.754.272 1.408.772 1.951l.148-.135.147-.136a2.472 2.472 0 0 1-.667-1.688l-.2.004zm.72 1.82-.144.14c.527.54 1.25.8 2.144.8v-.4c-.814 0-1.423-.234-1.857-.68l-.143.14zm2 .74v.2c.815 0 1.479-.186 1.966-.585l-.126-.155-.127-.155c-.393.322-.955.495-1.713.495v.2zm1.84-.54.129.152c.486-.412.73-.948.73-1.592h-.4c0 .53-.194.953-.589 1.288l.13.152zm.66-1.44h.2c0-.531-.145-.986-.447-1.348l-.153.128-.154.128c.231.278.354.636.354 1.092h.2zm-.4-1.22.159-.121c-.28-.368-.711-.679-1.275-.94l-.084.181-.084.181c.529.246.898.522 1.124.82l.16-.121zm-1.2-.88.087-.18c-.558-.272-1.274-.549-2.146-.83l-.061.19-.062.19c.862.279 1.559.549 2.094.81l.088-.18zm-2.12-.82.06-.19c-1.138-.367-1.953-.864-2.467-1.478l-.153.128-.154.128c.58.693 1.471 1.222 2.652 1.602l.062-.19zm-2.56-1.54.154-.127c-.514-.627-.774-1.394-.774-2.313h-.4c0 1 .286 1.86.865 2.567l.155-.127zm-.82-2.44h.2c0-1.052.377-1.888 1.13-2.528l-.13-.152-.13-.152c-.847.72-1.27 1.67-1.27 2.832h.2zm1.2-2.68.13.152c.752-.64 1.801-.972 3.17-.972v-.4c-1.432 0-2.583.348-3.43 1.068l.13.152zm3.3-1.02v.2c1.324 0 2.368.343 3.15 1.012l.13-.152.13-.152c-.872-.745-2.015-1.108-3.41-1.108v.2zm3.28 1.06-.129.153c.776.65 1.183 1.56 1.209 2.751l.2-.004.2-.004c-.028-1.288-.474-2.313-1.352-3.05l-.128.154zm1.28 2.9v-.2h-2.26v.4h2.26v-.2zm-2.26 0h.2a2.02 2.02 0 0 0-.31-1.064l-.17.104-.171.104c.169.278.25.562.25.856h.2zm-.28-.96.172-.1a2.342 2.342 0 0 0-.872-.853l-.1.173-.1.173c.319.184.56.42.727.708l.173-.101zm-.8-.78.104-.17c-.385-.237-.85-.35-1.384-.35v.4c.478 0 .867.1 1.175.29l.105-.17zm-1.28-.32.004-.2c-.663-.014-1.236.149-1.704.5l.12.16.12.16c.385-.289.865-.433 1.455-.42l.005-.2zm-1.58.46-.117-.162c-.48.345-.723.825-.723 1.422h.4c0-.47.183-.83.556-1.098l-.116-.162zm-.64 1.26h-.2c0 .716.29 1.29.863 1.702l.117-.162.116-.162c-.466-.335-.696-.788-.696-1.378h-.2zm.78 1.54-.114.164c.544.377 1.413.758 2.591 1.146l.063-.19.062-.19c-1.169-.385-1.993-.751-2.489-1.094l-.113.164zm2.54 1.12-.063.19c.721.236 1.353.523 1.897.86l.106-.17.105-.17a9.18 9.18 0 0 0-1.983-.9l-.062.19zm1.94.88-.1.173a3.49 3.49 0 0 1 1.268 1.23l.172-.103.171-.103a3.89 3.89 0 0 0-1.41-1.37l-.101.173zm1.34 1.3-.169.108c.307.479.469 1.105.469 1.892h.4c0-.84-.172-1.547-.532-2.108l-.168.108zm.5 2h-.2c0 .712-.178 1.355-.531 1.936l.17.104.172.104c.393-.646.589-1.362.589-2.144h-.2zm-.56 2.04-.17-.106c-.352.566-.863 1.022-1.541 1.368l.09.178.091.178c.736-.374 1.305-.878 1.7-1.512l-.17-.106zm-1.62 1.44-.093-.177c-.658.341-1.465.517-2.427.517v.4c1.01 0 1.883-.184 2.612-.563l-.092-.177z" fill="#212121" mask="url(#a)"/><path d="M5.78 4v8" stroke="#212121" stroke-width="2.5"/><path d="m.78 9 5 4 5-4" stroke="#212121" stroke-width="2.5" stroke-linejoin="bevel"/><circle cx="5.781" cy="18" r="2" fill="#212121"/></svg>